<svg xmlns="http://www.w3.org/2000/svg" width="12" height="12" viewBox="0 0 12 12">
    <path fill="#B0B6C4" fill-rule="evenodd" d="M7.2 9a.6.6 0 0 1-.6.6H5.4a.6.6 0 0 1 0-1.2h1.2a.6.6 0 0 1 .6.6zM6 10.8c-2.232 0-4.107-1.8-4.642-3.6H4.8V3.6h2.4v3.6h3.442C10.107 9 8.232 10.8 6 10.8zM1.2 6h2.4V3.6H1.2V6zM6 1.2c1.213 0 2.318 0 3.164 1.2H2.836C3.682 1.2 4.787 1.2 6 1.2zM8.4 6h2.4V3.6H8.4V6zm2.392-3.6C9.697.6 7.96 0 6 0 4.04 0 2.303.6 1.208 2.4H0v4.8h.12C.678 9.6 3.098 12 6 12s5.323-2.4 5.88-4.8H12V2.4h-1.208z"/>
</svg>
