<svg xmlns="http://www.w3.org/2000/svg" width="9" height="12" viewBox="0 0 9 12">
    <path fill="#B6BCCA" fill-rule="evenodd" d="M4.2 7.2a.6.6 0 1 1 0 1.2.6.6 0 0 1 0-1.2zm0 2.4c.992 0 1.8-.808 1.8-1.8S5.192 6 4.2 6s-1.8.808-1.8 1.8.808 1.8 1.8 1.8zm3 .6a.6.6 0 0 1-.6.6H1.8a.6.6 0 0 1-.6-.6V5.4a.6.6 0 0 1 .6-.6h4.8a.6.6 0 0 1 .6.6v4.8zM3 3.6V2.48c0-.48.25-.943.68-1.155.732-.36 1.444.11 1.656.713.08.225.309.362.547.362.408 0 .713-.407.566-.788C6.031.521 4.797-.326 3.468.122 2.443.468 1.8 1.492 1.8 2.572V3.6A1.8 1.8 0 0 0 0 5.4v4.8A1.8 1.8 0 0 0 1.8 12h4.8a1.8 1.8 0 0 0 1.8-1.8V5.4a1.8 1.8 0 0 0-1.8-1.8H3z"/>
</svg>
