<svg xmlns="http://www.w3.org/2000/svg" width="257" height="45" viewBox="0 0 257 45">
    <defs>
        <linearGradient id="a" x1="91.049%" x2="9.603%" y1="0%" y2="75.604%">
            <stop offset="0%" stop-color="#50D26F"/>
            <stop offset="100%" stop-color="#50B8D2"/>
        </linearGradient>
    </defs>
    <g fill="none" fill-rule="evenodd">
        <rect width="87" height="45" x="170" fill="url(#a)" fill-rule="nonzero" rx="22.5"/>
        <path fill="#FFF" d="M16.269 40C7.03 40 0 33.507 0 24 0 14.446 7.03 8 16.269 8c7.255 0 11.13 4.22 13.114 8.301l-6.67 3.247c-.991-2.458-3.56-4.499-6.444-4.499-4.912 0-8.383 3.896-8.383 8.951 0 5.055 3.47 8.95 8.383 8.95 2.884 0 5.453-2.04 6.444-4.498l6.67 3.247C27.445 35.687 23.524 40 16.269 40zm42.632-.557h-7.752V27.014H38.666v12.43h-7.751V8.51h7.751v11.548H51.15V8.51h7.752v30.933zM77.062 40c-9.193 0-16.088-6.586-16.088-16S67.869 8 77.062 8c9.194 0 16.044 6.586 16.044 16s-6.85 16-16.044 16zm0-7.05c4.957 0 8.157-3.941 8.157-8.95 0-5.055-3.2-8.95-8.157-8.95-5.002 0-8.202 3.895-8.202 8.95 0 5.009 3.2 8.95 8.202 8.95zm25.913 6.493h-7.751V8.51h7.75v30.933zm18.342.557c-9.239 0-16.27-6.493-16.27-16 0-9.554 7.031-16 16.27-16 7.255 0 11.13 4.22 13.114 8.301l-6.67 3.247c-.991-2.458-3.56-4.499-6.444-4.499-4.913 0-8.383 3.896-8.383 8.951 0 5.055 3.47 8.95 8.383 8.95 2.884 0 5.453-2.04 6.444-4.498l6.67 3.247C132.493 35.687 128.572 40 121.317 40zM158 39.443h-22.037V8.51H158v6.957h-14.286v4.823h13.97v6.956h-13.97v5.241H158v6.956zM198.257 34H184V10h13.818c4.826 0 7.129 3.094 7.129 6.117 0 2.986-1.864 5.001-4.168 5.505 2.596.396 4.643 2.843 4.643 5.865 0 3.49-2.376 6.513-7.165 6.513zm-1.864-14.789c1.28 0 2.157-.827 2.157-2.015 0-1.151-.878-1.979-2.157-1.979h-6.105v3.994h6.105zm.219 9.572c1.499 0 2.413-.864 2.413-2.16 0-1.187-.878-2.158-2.413-2.158h-6.324v4.318h6.324zM225.272 34h-17.876V10h17.876v5.397h-11.588v3.742h11.333v5.398h-11.333v4.066h11.588V34zm13.928 0h-6.287V15.397h-6.836V10H246v5.397h-6.8V34z"/>
    </g>
</svg>
