<svg xmlns="http://www.w3.org/2000/svg" width="12" height="12" viewBox="0 0 12 12">
    <path fill="#B6BCCA" fill-rule="evenodd" d="M9.938 10.8H2.063c-.424 0-.737-.418-.577-.803C2.228 8.22 3.97 7.2 6 7.2c2.03 0 3.773 1.019 4.514 2.797.16.385-.153.803-.576.803M3.55 3.6c0-1.324 1.1-2.4 2.45-2.4 1.351 0 2.45 1.076 2.45 2.4C8.45 4.924 7.35 6 6 6 4.65 6 3.55 4.924 3.55 3.6m8.423 6.982c-.445-2.016-1.838-3.503-3.67-4.178a3.56 3.56 0 0 0 1.329-3.362C9.39 1.468 8.054.209 6.44.025 4.214-.229 2.325 1.47 2.325 3.6c0 1.134.537 2.144 1.373 2.804C1.864 7.079.472 8.566.026 10.582-.135 11.314.467 12 1.232 12h9.535c.766 0 1.369-.686 1.206-1.418"/>
</svg>
