<svg xmlns="http://www.w3.org/2000/svg" width="12" height="12" viewBox="0 0 12 12">
    <path fill="#B6BCCA" fill-rule="evenodd" d="M6.6 10.2a.6.6 0 0 1-1.2 0V1.8a.6.6 0 0 1 1.2 0v8.4zM6.6 0H5.4a1.2 1.2 0 0 0-1.2 1.2v9.6A1.2 1.2 0 0 0 5.4 12h1.2a1.2 1.2 0 0 0 1.2-1.2V1.2A1.2 1.2 0 0 0 6.6 0zM2.4 10.2a.6.6 0 0 1-1.2 0v-6a.6.6 0 0 1 1.2 0v6zm0-7.8H1.2A1.2 1.2 0 0 0 0 3.6v7.2A1.2 1.2 0 0 0 1.2 12h1.2a1.2 1.2 0 0 0 1.2-1.2V3.6a1.2 1.2 0 0 0-1.2-1.2zm8.4 7.8a.6.6 0 0 1-1.2 0V7.8a.6.6 0 0 1 1.2 0v2.4zm0-4.2H9.6a1.2 1.2 0 0 0-1.2 1.2v3.6A1.2 1.2 0 0 0 9.6 12h1.2a1.2 1.2 0 0 0 1.2-1.2V7.2A1.2 1.2 0 0 0 10.8 6z"/>
</svg>
