<svg xmlns="http://www.w3.org/2000/svg" width="21" height="12" viewBox="0 0 21 12">
    <path fill="#FFF" fill-rule="evenodd" d="M20.042 10.38a1.502 1.502 0 0 0-.068-.132c-.35-.63-1.017-1.402-2.004-2.32l-.021-.02-.01-.01-.01-.01h-.01c-.45-.428-.733-.714-.85-.86-.218-.28-.265-.564-.148-.85.084-.215.399-.674.944-1.373.288-.37.514-.668.682-.892C19.76 2.305 20.283 1.276 20.12.828L20.06.723c-.041-.063-.15-.121-.325-.172-.175-.054-.399-.062-.673-.027l-3.02.02a.386.386 0 0 0-.21.007l-.136.03-.053.027L15.6.64a.436.436 0 0 0-.115.111.748.748 0 0 0-.105.183 17.152 17.152 0 0 1-1.123 2.36c-.259.435-.495.81-.713 1.13a5.383 5.383 0 0 1-.545.703 3.67 3.67 0 0 1-.4.362c-.119.09-.209.13-.273.115l-.179-.041a.696.696 0 0 1-.236-.257c-.06-.11-.1-.245-.121-.41a4.85 4.85 0 0 1-.037-.425 7.43 7.43 0 0 1 .006-.504c.008-.216.01-.364.01-.44 0-.265.006-.555.016-.866.01-.31.019-.557.027-.74.006-.18.01-.374.01-.578 0-.203-.012-.362-.037-.477a1.726 1.726 0 0 0-.109-.335.55.55 0 0 0-.215-.25 1.206 1.206 0 0 0-.352-.143c-.37-.084-.843-.13-1.417-.135-1.301-.015-2.136.07-2.506.252-.146.077-.28.181-.4.315-.125.154-.143.239-.053.251.42.064.718.214.893.45l.063.126c.05.09.1.25.146.483.05.23.08.485.095.765.035.51.035.948 0 1.312-.035.364-.068.647-.099.849-.03.204-.078.368-.142.493a2.238 2.238 0 0 1-.125.23.213.213 0 0 1-.051.054.781.781 0 0 1-.284.054c-.099 0-.216-.05-.356-.146a2.557 2.557 0 0 1-.436-.403c-.15-.171-.32-.412-.51-.72a12.78 12.78 0 0 1-.588-1.092l-.169-.304a24.21 24.21 0 0 1-.43-.856A17.089 17.089 0 0 1 4.26 1.03a.692.692 0 0 0-.251-.335L3.954.664a.65.65 0 0 0-.168-.089 1.193 1.193 0 0 0-.241-.068L.67.528c-.294 0-.493.066-.598.2L.031.79A.345.345 0 0 0 0 .96c0 .076.02.17.064.284.42.987.876 1.937 1.37 2.854.493.917.92 1.655 1.284 2.214.364.56.734 1.088 1.113 1.584.378.497.627.814.75.954.124.14.218.244.288.314l.263.251c.169.169.416.368.74.603.326.234.685.464 1.082.693.395.226.856.413 1.38.555a4.727 4.727 0 0 0 1.532.172h1.207c.245-.02.43-.098.555-.23l.041-.053a.687.687 0 0 0 .078-.194 1.06 1.06 0 0 0 .037-.287c-.006-.3.017-.572.068-.813.052-.24.111-.423.18-.545.065-.123.141-.226.225-.308a.874.874 0 0 1 .18-.152.625.625 0 0 1 .084-.037c.168-.056.366-.002.592.162.228.165.44.368.64.609.199.24.437.512.717.812.28.3.524.524.734.673l.21.125c.14.084.323.16.545.23.224.07.42.087.588.054l2.685-.041c.265 0 .473-.044.62-.132.145-.088.233-.183.262-.288a.83.83 0 0 0 .006-.358 1.444 1.444 0 0 0-.078-.286z"/>
</svg>
