<svg xmlns="http://www.w3.org/2000/svg" width="26" height="8" viewBox="0 0 26 8">
    <path fill="#FFF" fill-rule="evenodd" d="M5.891 6.873c.07-.182.105-.479.105-.891V4.246c0-.4-.035-.693-.105-.878-.07-.185-.192-.277-.368-.277-.17 0-.29.092-.36.277-.069.185-.104.477-.104.878v1.736c0 .412.034.709.1.89.067.183.188.273.364.273s.298-.09.368-.272zm-1.409.872c-.252-.17-.43-.433-.536-.79-.106-.358-.16-.834-.16-1.428v-.809c0-.6.061-1.082.182-1.445.122-.364.31-.629.569-.796.257-.166.595-.25 1.013-.25.412 0 .743.085.991.255.249.17.43.435.546.795.115.361.172.841.172 1.441v.81c0 .593-.056 1.07-.168 1.431-.112.36-.294.624-.545.79-.252.168-.593.251-1.023.251-.443 0-.79-.085-1.04-.255zm19.467-4.55c-.063.079-.106.208-.127.386a7.53 7.53 0 0 0-.032.814v.4h.918v-.4c0-.357-.012-.629-.036-.814-.024-.184-.068-.315-.132-.39-.063-.076-.162-.114-.295-.114-.134 0-.232.04-.296.118zm-.159 2.346v.281c0 .358.01.626.032.805.021.179.065.309.132.39.067.083.17.124.309.124.188 0 .317-.073.386-.219.07-.145.108-.387.114-.727l1.082.064c.006.048.009.115.009.2 0 .515-.141.9-.423 1.154-.282.255-.68.382-1.195.382-.618 0-1.052-.194-1.3-.582-.249-.387-.373-.988-.373-1.8v-.972c0-.837.129-1.447.386-1.832.258-.385.699-.577 1.323-.577.43 0 .76.078.99.236.231.158.393.403.487.736.094.334.141.794.141 1.382v.955h-2.1zM1.427 5.436L0 .282h1.245l.5 2.336c.128.576.222 1.067.282 1.473h.037c.042-.291.136-.779.281-1.464L2.864.282h1.245L2.664 5.436V7.91H1.427V5.436zm9.883-3.1V7.91h-.982l-.11-.682h-.026c-.267.515-.667.773-1.2.773-.37 0-.643-.121-.819-.364-.175-.242-.263-.62-.263-1.136V2.336h1.254v4.091c0 .249.028.426.082.532.055.106.146.16.273.16.11 0 .214-.034.314-.1a.619.619 0 0 0 .222-.255V2.336h1.255zm6.435 0V7.91h-.982l-.11-.682h-.026c-.267.515-.667.773-1.2.773-.37 0-.643-.121-.819-.364-.175-.242-.263-.62-.263-1.136V2.336h1.254v4.091c0 .249.028.426.082.532.055.106.146.16.273.16.109 0 .214-.034.313-.1a.619.619 0 0 0 .223-.255V2.336h1.255zm-4.272-1.045v6.618h-1.227V1.291h-1.245V.28h3.718v1.01h-1.246zm7.274 4.21v-.719c0-.436-.014-.773-.041-1.009-.027-.236-.076-.405-.146-.504a.34.34 0 0 0-.295-.15.483.483 0 0 0-.336.145.794.794 0 0 0-.219.373V6.8c.055.097.126.17.214.218a.58.58 0 0 0 .286.073c.134 0 .24-.048.319-.145.078-.097.134-.26.168-.491.033-.23.05-.549.05-.955zm1.15-2.274c.075.352.113.84.113 1.464v.882c0 .83-.1 1.44-.3 1.831-.2.391-.512.587-.936.587-.236 0-.452-.055-.645-.164a1.065 1.065 0 0 1-.437-.445h-.027l-.127.527H18.5V0h1.21v2.936h.009c.109-.212.263-.383.463-.513s.415-.196.646-.196c.296 0 .53.08.7.237.17.157.292.412.368.763z"/>
</svg>
